<?xml version="1.0" encoding="UTF-8"?>
<svg xmlns="http://www.w3.org/2000/svg" viewBox="0 0 100 100" fill="none">
  <!-- Leaf -->
  <path d="M50 8 C 38 18, 38 35, 50 50 C 62 35, 62 18, 50 8 Z" fill="#2E7D32"/>
  <!-- Leaf midrib -->
  <path d="M50 12 L50 50" stroke="#1B5E20" stroke-width="1.5" stroke-linecap="round"/>
  <!-- Leaf veins -->
  <path d="M50 22 L44 28 M50 22 L56 28 M50 32 L42 38 M50 32 L58 38 M50 42 L44 46 M50 42 L56 46" stroke="#1B5E20" stroke-width="0.8" stroke-linecap="round" fill="none"/>
  <!-- Stem -->
  <path d="M50 50 L50 65" stroke="#2E7D32" stroke-width="3" stroke-linecap="round"/>
  <!-- Infinity-shaped roots -->
  <path d="M50 65 C 30 65, 22 75, 30 82 C 38 89, 50 80, 50 73 C 50 80, 62 89, 70 82 C 78 75, 70 65, 50 65 Z" fill="none" stroke="#2E7D32" stroke-width="3" stroke-linecap="round" stroke-linejoin="round"/>
  <!-- Root tendrils -->
  <path d="M30 78 C 26 84, 24 88, 22 92 M34 84 C 33 88, 32 92, 31 95 M38 80 C 38 86, 38 90, 38 94" stroke="#2E7D32" stroke-width="1.2" stroke-linecap="round" fill="none"/>
  <path d="M70 78 C 74 84, 76 88, 78 92 M66 84 C 67 88, 68 92, 69 95 M62 80 C 62 86, 62 90, 62 94" stroke="#2E7D32" stroke-width="1.2" stroke-linecap="round" fill="none"/>
  <path d="M50 73 C 50 80, 50 86, 50 92" stroke="#2E7D32" stroke-width="1.2" stroke-linecap="round" fill="none"/>
</svg>
